<svg xmlns="http://www.w3.org/2000/svg" width="536" height="536" viewBox="0 0 536 536">
<g>
<path d="M 281.79 339.25 C281.53,346.68 281.30,347.53 279.46,347.79 C276.36,348.24 276.00,347.31 276.00,338.83 C276.00,331.24 275.93,331.00 273.61,331.00 C271.23,331.00 269.48,328.65 270.56,326.91 C271.45,325.46 286.70,325.77 287.25,327.25 C288.05,329.45 286.90,331.00 284.46,331.00 C282.17,331.00 282.07,331.31 281.79,339.25 ZM 277.69 345.35 C279.41,347.08 280.51,344.83 280.60,339.41 C280.75,330.45 280.80,330.27 283.70,329.54 C287.60,328.56 284.73,327.03 279.00,327.03 C272.97,327.03 270.56,328.50 274.28,329.92 C276.87,330.90 277.00,331.27 277.00,337.81 C277.00,341.58 277.31,344.98 277.69,345.35 ZM 297.00 346.59 C297.00,348.38 293.11,348.45 292.43,346.67 C292.15,345.95 292.05,341.11 292.21,335.92 C292.48,327.29 292.67,326.50 294.49,326.50 C295.72,326.50 296.57,327.25 296.72,328.50 C296.85,329.60 296.71,329.94 296.40,329.25 C296.09,328.56 295.20,328.00 294.42,328.00 C293.30,328.00 293.00,329.92 293.00,337.12 C293.00,345.74 293.11,346.21 295.00,345.71 C296.30,345.37 297.00,345.68 297.00,346.59 ZM 277.01 361.25 C277.01,361.66 275.85,362.00 274.43,362.00 C272.22,362.00 271.91,361.62 272.18,359.25 C272.44,357.05 273.08,356.43 275.39,356.17 C277.98,355.87 278.21,356.08 277.65,358.17 C277.31,359.45 277.02,360.84 277.01,361.25 ZM 297.52 361.98 C296.68,363.32 295.67,363.27 294.20,361.80 C292.31,359.91 292.75,356.30 294.94,355.72 C296.45,355.33 297.03,355.86 297.52,358.08 C297.86,359.66 297.86,361.41 297.52,361.98 ZM 286.72 361.75 C285.24,363.67 284.10,363.25 283.41,360.50 C282.64,357.43 283.58,354.69 285.22,355.24 C286.89,355.80 287.90,360.21 286.72,361.75 ZM 264.08 359.75 C264.04,360.44 263.29,361.00 262.43,361.00 C261.37,361.00 260.97,360.26 261.18,358.75 C261.41,357.14 262.28,356.41 264.25,356.18 C266.62,355.91 267.00,356.22 267.00,358.43 C267.00,361.10 265.54,361.92 264.66,359.75 C264.26,358.75 264.14,358.75 264.08,359.75 ZM 238.80 358.80 C237.19,360.41 236.06,360.31 235.36,358.50 C234.47,356.17 235.73,354.00 237.97,354.00 C240.25,354.00 240.75,356.85 238.80,358.80 ZM 244.50 336.99 C244.50,345.95 244.26,347.52 242.84,347.79 C241.93,347.97 240.89,347.64 240.53,347.06 C240.16,346.45 240.75,346.00 241.94,346.00 C243.87,346.00 244.00,345.42 244.00,337.00 C244.00,328.67 243.85,328.00 242.00,328.00 C240.90,328.00 240.00,327.52 240.00,326.93 C240.00,326.34 241.01,326.00 242.25,326.18 C244.42,326.49 244.50,326.87 244.50,336.99 ZM 255.70 358.57 C255.56,363.42 253.48,362.99 252.93,358.00 C252.60,355.04 253.02,354.07 254.40,354.60 C255.25,354.93 255.76,356.48 255.70,358.57 Z" fill="rgb(247,200,188)" data-index="0"></path>
<path d="M 282.50 398.01 C244.81,402.00 208.55,389.75 180.16,363.45 C173.96,357.70 163.63,345.39 160.49,340.00 C158.32,336.28 163.43,341.74 167.00,346.96 C171.31,353.27 184.23,365.63 194.36,373.14 C208.33,383.51 229.87,391.56 248.25,393.29 C260.38,394.43 265.80,393.71 265.21,391.06 C265.02,390.21 265.50,389.98 266.59,390.39 C267.50,390.75 268.85,390.54 269.58,389.93 C270.31,389.32 271.32,389.08 271.83,389.39 C272.33,389.70 274.04,388.84 275.62,387.48 C277.86,385.55 278.11,385.00 276.75,385.00 C274.62,385.00 274.42,382.16 276.49,381.36 C277.51,380.98 277.79,380.02 277.38,378.38 C277.05,377.06 277.31,375.33 277.97,374.54 C279.50,372.69 278.43,369.30 275.90,367.95 C274.82,367.37 271.49,366.72 268.50,366.50 C265.51,366.28 262.23,365.66 261.23,365.12 C260.10,364.52 258.83,364.49 257.95,365.05 C255.50,366.60 252.84,366.10 252.29,364.00 C251.74,361.89 249.54,361.31 248.50,363.00 C247.56,364.53 244.29,364.19 243.64,362.50 C242.94,360.68 240.66,360.57 238.01,362.22 C235.32,363.90 233.60,362.06 233.60,357.50 C233.60,353.37 234.84,351.86 238.40,351.65 C241.36,351.48 241.65,350.78 239.50,349.00 C238.68,348.32 238.00,347.23 238.00,346.58 C238.00,345.93 237.46,344.86 236.80,344.20 C235.86,343.26 234.92,343.64 232.55,345.88 C229.98,348.31 228.44,348.84 222.78,349.26 C213.05,349.99 212.87,349.75 213.21,336.49 L 213.50 325.50 L 219.50 324.92 C226.27,324.26 230.16,325.58 233.64,329.71 C236.16,332.71 238.00,332.01 238.00,328.05 C238.00,323.61 242.56,322.54 245.96,326.19 L 248.00 328.38 L 250.04 326.19 C251.39,324.74 253.26,324.00 255.60,324.00 C257.54,324.00 260.01,323.53 261.09,322.95 C263.77,321.52 262.05,319.96 255.00,317.44 C250.24,315.74 248.80,314.55 244.28,308.53 L 239.06 301.58 L 238.50 279.50 L 229.50 278.90 C223.22,278.48 219.24,277.66 216.35,276.17 C211.63,273.76 205.53,267.13 203.42,262.13 C201.70,258.04 201.57,248.16 203.18,242.81 C205.66,234.51 215.71,226.57 225.14,225.46 C235.14,224.27 235.96,223.98 237.50,221.00 C238.45,219.16 239.00,215.29 239.00,210.40 C239.00,203.46 239.35,202.07 242.48,196.47 C246.66,189.00 251.49,184.51 256.33,183.60 C258.61,183.17 260.11,182.23 260.51,180.97 C261.38,178.21 265.30,177.50 269.11,179.40 C272.17,180.93 276.99,181.65 275.73,180.39 C275.39,180.06 275.99,178.85 277.05,177.71 C278.77,175.87 278.82,175.46 277.50,174.00 C276.25,172.62 276.19,170.98 277.10,163.43 C277.69,158.52 278.80,152.83 279.56,150.78 C282.11,144.00 280.84,143.16 267.26,142.60 C262.27,142.40 257.80,142.00 257.34,141.71 C255.06,140.32 225.53,147.05 221.50,149.88 C220.95,150.27 218.02,151.44 215.00,152.47 C200.32,157.50 177.88,175.14 166.30,190.75 C160.67,198.34 158.62,200.18 161.69,194.89 C167.07,185.64 182.02,170.69 194.62,161.99 C232.75,135.62 285.43,131.72 326.50,152.22 C356.84,167.37 382.39,197.08 392.40,228.86 C400.72,255.25 400.20,288.16 391.08,312.50 C379.85,342.48 356.81,368.80 328.56,383.91 C314.14,391.63 298.97,396.27 282.50,398.01 ZM 261.34 317.04 C271.52,318.65 280.67,314.16 286.82,304.54 C289.10,300.98 289.47,299.13 289.95,289.00 L 290.50 277.50 L 301.50 276.94 C315.05,276.25 319.09,274.44 325.18,266.37 C328.92,261.43 329.47,260.02 329.82,254.48 C330.29,247.17 329.05,242.74 324.96,237.10 C320.55,231.02 313.54,227.87 303.04,227.25 C298.34,226.97 293.97,226.32 293.33,225.82 C292.56,225.20 292.21,221.43 292.31,214.70 C292.44,205.17 292.26,204.15 289.53,199.18 C286.49,193.65 281.38,188.88 276.39,186.92 C274.80,186.30 270.51,185.79 266.86,185.80 C255.91,185.81 248.98,190.06 243.93,199.86 C242.16,203.29 241.56,206.57 241.09,215.36 L 240.50 226.50 L 231.50 227.08 C217.98,227.96 212.75,230.81 206.91,240.50 C204.93,243.79 204.50,245.82 204.52,252.00 C204.54,260.30 206.02,264.16 211.36,269.84 C216.44,275.23 219.52,276.38 230.50,276.97 L 240.50 277.50 L 241.07 287.50 C241.74,299.11 242.25,301.00 246.21,306.78 C249.84,312.09 255.88,316.18 261.34,317.04 ZM 273.86 312.07 C266.33,315.91 256.31,313.54 250.08,306.43 C246.05,301.85 245.01,297.41 245.01,284.75 L 245.00 274.00 L 235.08 274.00 C223.65,274.00 218.48,272.30 213.31,266.86 C209.18,262.51 208.00,259.20 208.00,252.00 C208.00,245.04 209.18,241.52 212.81,237.62 C217.46,232.65 222.37,231.05 233.05,231.02 C239.12,231.01 243.04,230.56 243.80,229.80 C244.59,229.01 245.01,224.67 245.02,217.05 C245.04,207.95 245.44,204.65 246.90,201.50 C254.27,185.57 276.73,184.57 286.18,199.77 C288.22,203.05 288.56,205.12 289.00,217.00 L 289.50 230.50 L 300.50 231.03 C313.81,231.67 318.18,233.54 322.88,240.63 C325.59,244.72 326.00,246.22 326.00,251.98 C326.00,257.57 325.55,259.32 323.12,263.15 C317.73,271.66 312.06,273.99 296.75,273.99 L 287.00 274.00 L 287.00 282.95 C287.00,295.55 285.55,301.39 281.21,306.19 C279.24,308.36 275.94,311.01 273.86,312.07 ZM 264.49 270.76 C269.91,271.89 306.03,271.09 309.50,269.76 C315.47,267.48 319.83,263.87 321.42,259.90 C324.66,251.80 322.80,242.78 316.91,238.05 C311.49,233.69 309.01,233.00 298.87,233.00 C286.77,233.00 286.00,232.50 285.99,224.71 C285.99,221.30 285.69,214.72 285.33,210.10 C284.70,201.98 284.55,201.56 280.59,197.49 C278.34,195.18 274.41,192.50 271.85,191.55 C267.51,189.92 266.81,189.91 261.66,191.41 C249.69,194.89 246.77,200.09 246.45,218.49 C245.82,254.84 245.99,256.29 251.76,263.03 C255.56,267.48 259.13,269.64 264.49,270.76 ZM 215.67 347.33 C216.03,347.70 218.72,348.00 221.63,348.00 C226.13,348.00 227.46,347.53 230.47,344.90 C233.57,342.17 234.00,341.22 234.00,337.07 C234.00,330.09 231.07,327.68 221.95,327.17 L 215.00 326.77 L 215.00 336.72 C215.00,342.19 215.30,346.97 215.67,347.33 ZM 252.67 347.33 C254.01,348.68 263.73,348.03 264.99,346.51 C266.41,344.81 265.55,344.29 260.50,343.79 C258.26,343.57 257.42,342.93 257.18,341.25 C256.90,339.28 257.30,339.00 260.37,339.00 C264.18,339.00 266.09,337.31 263.88,335.90 C263.12,335.42 261.26,335.02 259.75,335.02 C257.67,335.00 257.00,334.51 257.00,333.00 C257.00,331.52 257.67,331.00 259.57,331.00 C262.78,331.00 266.25,329.21 265.47,327.95 C265.15,327.43 261.98,327.00 258.44,327.00 L 252.00 327.00 L 252.00 336.83 C252.00,342.24 252.30,346.97 252.67,347.33 ZM 281.79 339.25 C282.07,331.31 282.17,331.00 284.46,331.00 C286.90,331.00 288.05,329.45 287.25,327.25 C286.70,325.77 271.45,325.46 270.56,326.91 C269.48,328.65 271.23,331.00 273.61,331.00 C275.93,331.00 276.00,331.24 276.00,338.83 C276.00,347.31 276.36,348.24 279.46,347.79 C281.30,347.53 281.53,346.68 281.79,339.25 ZM 308.02 346.72 C311.65,348.55 316.44,348.27 319.14,346.07 C322.46,343.36 320.60,341.57 316.18,343.24 C312.41,344.66 310.32,343.75 308.00,339.65 C306.66,337.28 306.67,336.71 308.06,334.25 C309.47,331.77 310.13,331.51 314.81,331.64 C320.08,331.78 321.31,330.71 318.80,328.20 C317.29,326.69 310.88,326.64 307.66,328.11 C301.27,331.02 301.51,343.42 308.02,346.72 ZM 226.78 342.44 C221.77,345.95 218.73,343.50 219.19,336.33 C219.47,331.92 219.73,331.47 222.20,331.19 C226.78,330.66 229.00,332.55 229.00,336.98 C229.00,339.88 228.43,341.29 226.78,342.44 ZM 297.00 346.59 C297.00,345.94 296.64,345.59 295.95,345.58 C297.31,344.69 297.71,342.38 297.35,338.13 C296.77,331.22 296.31,328.79 295.22,328.17 C295.73,328.39 296.19,328.79 296.40,329.25 C296.71,329.94 296.85,329.60 296.72,328.50 C296.57,327.25 295.72,326.50 294.49,326.50 C292.67,326.50 292.48,327.29 292.21,335.92 C292.05,341.11 292.15,345.95 292.43,346.67 C293.11,348.45 297.00,348.38 297.00,346.59 ZM 244.50 336.99 C244.50,326.87 244.42,326.49 242.25,326.18 C241.01,326.00 240.00,326.34 240.00,326.93 C240.00,327.52 240.90,328.00 242.00,328.00 C240.15,328.00 240.00,328.67 240.00,337.00 C240.00,345.29 240.15,345.99 241.97,346.00 L 241.94 346.00 C240.75,346.00 240.16,346.45 240.53,347.06 C240.89,347.64 241.93,347.97 242.84,347.79 C244.26,347.52 244.50,345.95 244.50,336.99 ZM 273.80 155.22 C274.02,156.98 273.56,157.87 272.30,158.17 C267.30,159.37 264.63,155.92 267.97,152.58 C270.49,150.06 273.34,151.35 273.80,155.22 ZM 265.01 323.03 C266.98,324.28 268.73,324.24 269.54,322.94 C269.91,322.33 271.43,322.15 273.10,322.52 C275.59,323.07 276.00,322.86 276.00,321.05 C276.00,319.08 275.64,318.98 270.75,319.59 C264.81,320.33 262.73,321.58 265.01,323.03 ZM 221.44 338.62 C221.91,340.50 222.63,341.05 224.29,340.81 C225.97,340.58 226.57,339.72 226.81,337.25 C227.09,334.37 226.85,334.00 224.62,334.00 C221.54,334.00 220.62,335.34 221.44,338.62 ZM 277.01 361.25 C277.02,360.84 277.31,359.45 277.65,358.17 C278.21,356.08 277.98,355.87 275.39,356.17 C273.08,356.43 272.44,357.05 272.18,359.25 C271.91,361.62 272.22,362.00 274.43,362.00 C275.85,362.00 277.01,361.66 277.01,361.25 ZM 297.52 361.98 C297.86,361.41 297.86,359.66 297.52,358.08 C297.03,355.86 296.45,355.33 294.94,355.72 C292.75,356.30 292.31,359.91 294.20,361.80 C295.67,363.27 296.68,363.32 297.52,361.98 ZM 286.72 361.75 C287.90,360.21 286.89,355.80 285.22,355.24 C283.58,354.69 282.64,357.43 283.41,360.50 C284.10,363.25 285.24,363.67 286.72,361.75 ZM 264.08 359.75 C264.14,358.75 264.26,358.75 264.66,359.75 C265.54,361.92 267.00,361.10 267.00,358.43 C267.00,356.22 266.62,355.91 264.25,356.18 C262.28,356.41 261.41,357.14 261.18,358.75 C260.97,360.26 261.37,361.00 262.43,361.00 C263.29,361.00 264.04,360.44 264.08,359.75 ZM 265.69 352.89 C269.19,354.92 271.60,353.74 270.40,350.59 C269.64,348.62 266.64,348.52 265.07,350.42 C264.14,351.54 264.27,352.06 265.69,352.89 ZM 238.80 358.80 C240.75,356.85 240.25,354.00 237.97,354.00 C235.73,354.00 234.47,356.17 235.36,358.50 C236.06,360.31 237.19,360.41 238.80,358.80 ZM 255.70 358.57 C255.76,356.48 255.25,354.93 254.40,354.60 C253.02,354.07 252.60,355.04 252.93,358.00 C253.48,362.99 255.56,363.42 255.70,358.57 ZM 247.65 351.51 C249.07,352.93 252.00,352.53 252.00,350.91 C252.00,349.67 247.00,348.57 246.16,349.62 C245.78,350.11 245.64,350.41 245.85,350.30 C246.06,350.19 246.87,350.73 247.65,351.51 ZM 258.69 353.36 C259.70,354.37 260.66,354.12 262.00,352.50 C263.04,351.25 262.90,351.00 261.18,351.00 C258.99,351.00 257.63,352.29 258.69,353.36 ZM 268.68 342.60 C269.48,344.68 271.00,344.29 271.00,342.00 C271.00,340.90 270.62,340.00 270.17,340.00 C268.76,340.00 268.11,341.13 268.68,342.60 ZM 270.00 148.56 C270.00,149.35 269.58,150.00 269.06,150.00 C268.55,150.00 268.19,149.13 268.27,148.07 C268.43,145.89 270.00,146.33 270.00,148.56 ZM 294.42 328.00 C294.15,328.01 293.91,328.13 293.72,328.41 C293.91,328.12 294.14,328.00 294.42,328.00 Z" fill="rgb(249,115,71)" data-index="1" style="opacity: 1;"></path>
<path d="M 160.58 196.95 C159.40,199.41 161.61,197.07 166.30,190.75 C177.88,175.14 200.32,157.50 215.00,152.47 C218.02,151.44 220.95,150.27 221.50,149.88 C225.53,147.05 255.06,140.32 257.34,141.71 C257.80,142.00 262.27,142.40 267.26,142.60 C280.84,143.16 282.11,144.00 279.56,150.78 C278.80,152.83 277.69,158.52 277.10,163.43 C276.19,170.98 276.25,172.62 277.50,174.00 C278.82,175.46 278.77,175.87 277.05,177.71 C275.99,178.85 275.39,180.06 275.73,180.39 C276.99,181.65 272.17,180.93 269.11,179.40 C265.30,177.50 261.38,178.21 260.51,180.97 C260.11,182.23 258.61,183.17 256.33,183.60 C251.49,184.51 246.66,189.00 242.48,196.47 C239.35,202.07 239.00,203.46 239.00,210.40 C239.00,215.29 238.45,219.16 237.50,221.00 C235.96,223.98 235.14,224.27 225.14,225.46 C215.71,226.57 205.66,234.51 203.18,242.81 C201.57,248.16 201.70,258.04 203.42,262.13 C205.53,267.13 211.63,273.76 216.35,276.17 C219.24,277.66 223.22,278.48 229.50,278.90 L 238.50 279.50 L 239.06 301.58 L 244.28 308.53 C248.80,314.55 250.24,315.74 255.00,317.44 C262.05,319.96 263.77,321.52 261.09,322.95 C260.01,323.53 257.54,324.00 255.60,324.00 C253.26,324.00 251.39,324.74 250.04,326.19 L 248.00 328.38 L 245.96 326.19 C242.56,322.54 238.00,323.61 238.00,328.05 C238.00,332.01 236.16,332.71 233.64,329.71 C230.16,325.58 226.27,324.26 219.50,324.92 L 213.50 325.50 L 213.21 336.49 C212.87,349.75 213.05,349.99 222.78,349.26 C228.44,348.84 229.98,348.31 232.55,345.88 C234.92,343.64 235.86,343.26 236.80,344.20 C237.46,344.86 238.00,345.93 238.00,346.58 C238.00,347.23 238.68,348.32 239.50,349.00 C241.65,350.78 241.36,351.48 238.40,351.65 C234.84,351.86 233.60,353.37 233.60,357.50 C233.60,362.06 235.32,363.90 238.01,362.22 C240.66,360.57 242.94,360.68 243.64,362.50 C244.29,364.19 247.56,364.53 248.50,363.00 C249.54,361.31 251.74,361.89 252.29,364.00 C252.84,366.10 255.50,366.60 257.95,365.05 C258.83,364.49 260.10,364.52 261.23,365.12 C262.23,365.66 265.51,366.28 268.50,366.50 C271.49,366.72 274.82,367.37 275.90,367.95 C278.43,369.30 279.50,372.69 277.97,374.54 C277.31,375.33 277.05,377.06 277.38,378.38 C277.79,380.02 277.51,380.98 276.49,381.36 C274.42,382.16 274.62,385.00 276.75,385.00 C278.11,385.00 277.86,385.55 275.62,387.48 C274.04,388.84 272.33,389.70 271.83,389.39 C271.32,389.08 270.31,389.32 269.58,389.93 C268.85,390.54 267.50,390.75 266.59,390.39 C265.50,389.98 265.02,390.21 265.21,391.06 C265.80,393.71 260.38,394.43 248.25,393.29 C229.87,391.56 208.33,383.51 194.36,373.14 C184.23,365.63 171.31,353.27 167.00,346.96 C163.99,342.56 159.89,337.99 159.97,338.89 C159.26,337.77 158.57,336.64 157.89,335.50 C150.37,322.84 146.32,313.10 142.99,299.74 C134.19,264.37 141.00,226.69 160.58,196.95 ZM 264.49 270.76 C259.13,269.64 255.56,267.48 251.76,263.03 C245.99,256.29 245.82,254.84 246.45,218.49 C246.77,200.09 249.69,194.89 261.66,191.41 C266.81,189.91 267.51,189.92 271.85,191.55 C274.41,192.50 278.34,195.18 280.59,197.49 C284.55,201.56 284.70,201.98 285.33,210.10 C285.69,214.72 285.99,221.30 285.99,224.71 C286.00,232.50 286.77,233.00 298.87,233.00 C309.01,233.00 311.49,233.69 316.91,238.05 C322.80,242.78 324.66,251.80 321.42,259.90 C319.83,263.87 315.47,267.48 309.50,269.76 C306.03,271.09 269.91,271.89 264.49,270.76 ZM 273.80 155.22 C273.34,151.35 270.49,150.06 267.97,152.58 C264.63,155.92 267.30,159.37 272.30,158.17 C273.56,157.87 274.02,156.98 273.80,155.22 ZM 265.01 323.03 C262.73,321.58 264.81,320.33 270.75,319.59 C275.64,318.98 276.00,319.08 276.00,321.05 C276.00,322.86 275.59,323.07 273.10,322.52 C271.43,322.15 269.91,322.33 269.54,322.94 C268.73,324.24 266.98,324.28 265.01,323.03 ZM 221.44 338.62 C220.62,335.34 221.54,334.00 224.62,334.00 C226.85,334.00 227.09,334.37 226.81,337.25 C226.57,339.72 225.97,340.58 224.29,340.81 C222.63,341.05 221.91,340.50 221.44,338.62 ZM 265.69 352.89 C264.27,352.06 264.14,351.54 265.07,350.42 C266.64,348.52 269.64,348.62 270.40,350.59 C271.60,353.74 269.19,354.92 265.69,352.89 ZM 247.65 351.51 C246.87,350.73 246.06,350.19 245.85,350.30 C245.64,350.41 245.78,350.11 246.16,349.62 C247.00,348.57 252.00,349.67 252.00,350.91 C252.00,352.53 249.07,352.93 247.65,351.51 ZM 258.69 353.36 C257.63,352.29 258.99,351.00 261.18,351.00 C262.90,351.00 263.04,351.25 262.00,352.50 C260.66,354.12 259.70,354.37 258.69,353.36 ZM 268.68 342.60 C268.11,341.13 268.76,340.00 270.17,340.00 C270.62,340.00 271.00,340.90 271.00,342.00 C271.00,344.29 269.48,344.68 268.68,342.60 ZM 270.00 148.56 C270.00,146.33 268.43,145.89 268.27,148.07 C268.19,149.13 268.55,150.00 269.06,150.00 C269.58,150.00 270.00,149.35 270.00,148.56 ZM 271.87 139.18 C248.38,138.77 224.66,144.47 204.16,156.02 C217.10,148.60 231.25,143.65 247.00,140.97 C255.15,139.58 263.52,138.99 271.87,139.18 ZM 182.38 365.46 C193.20,375.07 205.09,382.68 217.74,388.19 C204.84,382.62 192.89,374.96 182.38,365.46 ZM 168.64 350.95 C170.96,353.74 173.46,356.58 175.79,359.06 C173.31,356.47 170.92,353.76 168.64,350.95 Z" fill="rgb(250,78,57)" data-index="2" style="opacity: 1;"></path>

</g>
</svg>